<mxfile host="app.diagrams.net" agent="Mozilla/5.0 (Windows NT 10.0; Win64; x64) AppleWebKit/537.36 (KHTML, like Gecko) Chrome/138.0.0.0 Safari/537.36 Edg/138.0.0.0" version="28.0.6">
  <diagram name="Page-1" id="TL1SlGOKiXQp_XRE5Oea">
    <mxGraphModel dx="1346" dy="776" grid="1" gridSize="10" guides="1" tooltips="1" connect="1" arrows="1" fold="1" page="1" pageScale="1" pageWidth="850" pageHeight="1100" math="0" shadow="0">
      <root>
        <mxCell id="0" />
        <mxCell id="1" parent="0" />
        <mxCell id="nBvoYWgUeIc0CtKUWluh-1" value="" style="whiteSpace=wrap;strokeWidth=2;" vertex="1" parent="1">
          <mxGeometry x="300" y="320" width="379" height="250" as="geometry" />
        </mxCell>
        <mxCell id="nBvoYWgUeIc0CtKUWluh-2" style="edgeStyle=orthogonalEdgeStyle;rounded=0;orthogonalLoop=1;jettySize=auto;html=1;exitX=1;exitY=0.5;exitDx=0;exitDy=0;entryX=0;entryY=0.75;entryDx=0;entryDy=0;" edge="1" parent="1" source="nBvoYWgUeIc0CtKUWluh-3" target="nBvoYWgUeIc0CtKUWluh-4">
          <mxGeometry relative="1" as="geometry" />
        </mxCell>
        <mxCell id="nBvoYWgUeIc0CtKUWluh-7" style="edgeStyle=orthogonalEdgeStyle;rounded=0;orthogonalLoop=1;jettySize=auto;html=1;exitX=0.75;exitY=0.1;exitDx=0;exitDy=0;exitPerimeter=0;entryX=0;entryY=0.5;entryDx=0;entryDy=0;" edge="1" parent="1" source="nBvoYWgUeIc0CtKUWluh-3" target="nBvoYWgUeIc0CtKUWluh-5">
          <mxGeometry relative="1" as="geometry" />
        </mxCell>
        <mxCell id="nBvoYWgUeIc0CtKUWluh-3" value="&lt;font style=&quot;font-size: 14px;&quot;&gt;&lt;b&gt;Entrenador&lt;/b&gt;&lt;/font&gt;" style="shape=umlActor;verticalLabelPosition=bottom;verticalAlign=top;html=1;outlineConnect=0;" vertex="1" parent="1">
          <mxGeometry x="190" y="413" width="40" height="57" as="geometry" />
        </mxCell>
        <mxCell id="nBvoYWgUeIc0CtKUWluh-4" value="Asignar Rutinas" style="rounded=1;arcSize=20;strokeWidth=2;fontSize=14;fontStyle=1" vertex="1" parent="1">
          <mxGeometry x="425" y="470" width="139" height="54" as="geometry" />
        </mxCell>
        <mxCell id="nBvoYWgUeIc0CtKUWluh-5" value="Ver Usuario" style="rounded=1;arcSize=20;strokeWidth=2;fontSize=14;fontStyle=1" vertex="1" parent="1">
          <mxGeometry x="425" y="400" width="139" height="54" as="geometry" />
        </mxCell>
        <mxCell id="nBvoYWgUeIc0CtKUWluh-8" value="&lt;span class=&quot;MsoPlaceholderText&quot;&gt;&lt;span style=&quot;&quot; lang=&quot;ES-TRAD&quot;&gt;&lt;font face=&quot;Helvetica&quot; style=&quot;font-size: 14px;&quot;&gt;&lt;b style=&quot;&quot;&gt;CASO DE USO 3&lt;/b&gt;&lt;/font&gt;&lt;/span&gt;&lt;/span&gt;" style="text;html=1;align=center;verticalAlign=middle;whiteSpace=wrap;rounded=0;" vertex="1" parent="1">
          <mxGeometry x="414.5" y="330" width="150" height="50" as="geometry" />
        </mxCell>
      </root>
    </mxGraphModel>
  </diagram>
</mxfile>
